<mxfile host="app.diagrams.net" agent="Mozilla/5.0 (Windows NT 10.0; Win64; x64) AppleWebKit/537.36 (KHTML, like Gecko) Chrome/134.0.0.0 Safari/537.36" version="26.1.0">
  <diagram name="Página-1" id="GL-XshWPWH5aYW_Qn0Fl">
    <mxGraphModel dx="1434" dy="746" grid="1" gridSize="10" guides="1" tooltips="1" connect="1" arrows="1" fold="1" page="1" pageScale="1" pageWidth="827" pageHeight="1169" math="0" shadow="0">
      <root>
        <mxCell id="0" />
        <mxCell id="1" parent="0" />
        <mxCell id="cYxNwpAaJyoajZP_4yGd-17" style="edgeStyle=orthogonalEdgeStyle;rounded=0;orthogonalLoop=1;jettySize=auto;html=1;exitX=0.5;exitY=1;exitDx=0;exitDy=0;entryX=0.5;entryY=0;entryDx=0;entryDy=0;" edge="1" parent="1" source="cYxNwpAaJyoajZP_4yGd-1" target="cYxNwpAaJyoajZP_4yGd-8">
          <mxGeometry relative="1" as="geometry" />
        </mxCell>
        <mxCell id="cYxNwpAaJyoajZP_4yGd-18" style="edgeStyle=orthogonalEdgeStyle;rounded=0;orthogonalLoop=1;jettySize=auto;html=1;exitX=0.5;exitY=1;exitDx=0;exitDy=0;entryX=0.5;entryY=0;entryDx=0;entryDy=0;" edge="1" parent="1" source="cYxNwpAaJyoajZP_4yGd-1" target="cYxNwpAaJyoajZP_4yGd-2">
          <mxGeometry relative="1" as="geometry" />
        </mxCell>
        <mxCell id="cYxNwpAaJyoajZP_4yGd-28" style="edgeStyle=orthogonalEdgeStyle;rounded=0;orthogonalLoop=1;jettySize=auto;html=1;exitX=0.5;exitY=1;exitDx=0;exitDy=0;entryX=0.5;entryY=0;entryDx=0;entryDy=0;" edge="1" parent="1" source="cYxNwpAaJyoajZP_4yGd-1" target="cYxNwpAaJyoajZP_4yGd-13">
          <mxGeometry relative="1" as="geometry" />
        </mxCell>
        <mxCell id="cYxNwpAaJyoajZP_4yGd-37" style="edgeStyle=orthogonalEdgeStyle;rounded=0;orthogonalLoop=1;jettySize=auto;html=1;exitX=0.5;exitY=1;exitDx=0;exitDy=0;entryX=0.5;entryY=0;entryDx=0;entryDy=0;" edge="1" parent="1" source="cYxNwpAaJyoajZP_4yGd-1" target="cYxNwpAaJyoajZP_4yGd-35">
          <mxGeometry relative="1" as="geometry" />
        </mxCell>
        <mxCell id="cYxNwpAaJyoajZP_4yGd-1" value="Inicio" style="ellipse;whiteSpace=wrap;html=1;fillColor=#eeeeee;strokeColor=#36393d;" vertex="1" parent="1">
          <mxGeometry x="360" y="30" width="120" height="50" as="geometry" />
        </mxCell>
        <mxCell id="cYxNwpAaJyoajZP_4yGd-19" style="edgeStyle=orthogonalEdgeStyle;rounded=0;orthogonalLoop=1;jettySize=auto;html=1;exitX=0.5;exitY=1;exitDx=0;exitDy=0;entryX=0.5;entryY=0;entryDx=0;entryDy=0;" edge="1" parent="1" source="cYxNwpAaJyoajZP_4yGd-2" target="cYxNwpAaJyoajZP_4yGd-3">
          <mxGeometry relative="1" as="geometry" />
        </mxCell>
        <UserObject label="Interfaz" link="Modulo frontend" id="cYxNwpAaJyoajZP_4yGd-2">
          <mxCell style="rounded=0;whiteSpace=wrap;html=1;fillColor=#dae8fc;strokeColor=#6c8ebf;" vertex="1" parent="1">
            <mxGeometry x="240" y="120" width="120" height="40" as="geometry" />
          </mxCell>
        </UserObject>
        <mxCell id="cYxNwpAaJyoajZP_4yGd-20" style="edgeStyle=orthogonalEdgeStyle;rounded=0;orthogonalLoop=1;jettySize=auto;html=1;exitX=0.5;exitY=1;exitDx=0;exitDy=0;entryX=0.5;entryY=0;entryDx=0;entryDy=0;" edge="1" parent="1" source="cYxNwpAaJyoajZP_4yGd-3" target="cYxNwpAaJyoajZP_4yGd-4">
          <mxGeometry relative="1" as="geometry" />
        </mxCell>
        <mxCell id="cYxNwpAaJyoajZP_4yGd-3" value="Ingreso de datos" style="rounded=1;whiteSpace=wrap;html=1;fillColor=#d5e8d4;strokeColor=#82b366;" vertex="1" parent="1">
          <mxGeometry x="240" y="200" width="120" height="40" as="geometry" />
        </mxCell>
        <mxCell id="cYxNwpAaJyoajZP_4yGd-21" style="edgeStyle=orthogonalEdgeStyle;rounded=0;orthogonalLoop=1;jettySize=auto;html=1;exitX=0.5;exitY=1;exitDx=0;exitDy=0;entryX=0.5;entryY=0;entryDx=0;entryDy=0;" edge="1" parent="1" source="cYxNwpAaJyoajZP_4yGd-4" target="cYxNwpAaJyoajZP_4yGd-5">
          <mxGeometry relative="1" as="geometry" />
        </mxCell>
        <mxCell id="cYxNwpAaJyoajZP_4yGd-4" value="Mostrar recomendaciones" style="rounded=1;whiteSpace=wrap;html=1;fillColor=#ffe6cc;strokeColor=#d79b00;" vertex="1" parent="1">
          <mxGeometry x="240" y="280" width="120" height="40" as="geometry" />
        </mxCell>
        <mxCell id="cYxNwpAaJyoajZP_4yGd-22" style="edgeStyle=orthogonalEdgeStyle;rounded=0;orthogonalLoop=1;jettySize=auto;html=1;exitX=0.5;exitY=1;exitDx=0;exitDy=0;entryX=0.5;entryY=0;entryDx=0;entryDy=0;" edge="1" parent="1" source="cYxNwpAaJyoajZP_4yGd-5" target="cYxNwpAaJyoajZP_4yGd-6">
          <mxGeometry relative="1" as="geometry" />
        </mxCell>
        <mxCell id="cYxNwpAaJyoajZP_4yGd-5" value="Mostrar detalles del libro" style="rounded=1;whiteSpace=wrap;html=1;fillColor=#f8cecc;strokeColor=#b85450;" vertex="1" parent="1">
          <mxGeometry x="240" y="360" width="120" height="40" as="geometry" />
        </mxCell>
        <mxCell id="cYxNwpAaJyoajZP_4yGd-23" style="edgeStyle=orthogonalEdgeStyle;rounded=0;orthogonalLoop=1;jettySize=auto;html=1;exitX=0.5;exitY=1;exitDx=0;exitDy=0;entryX=0.5;entryY=0;entryDx=0;entryDy=0;" edge="1" parent="1" source="cYxNwpAaJyoajZP_4yGd-6" target="cYxNwpAaJyoajZP_4yGd-7">
          <mxGeometry relative="1" as="geometry" />
        </mxCell>
        <mxCell id="cYxNwpAaJyoajZP_4yGd-6" value="Interfaz de chat" style="rounded=1;whiteSpace=wrap;html=1;fillColor=#e1d5e7;strokeColor=#9673a6;" vertex="1" parent="1">
          <mxGeometry x="240" y="440" width="120" height="40" as="geometry" />
        </mxCell>
        <mxCell id="cYxNwpAaJyoajZP_4yGd-39" style="edgeStyle=orthogonalEdgeStyle;rounded=0;orthogonalLoop=1;jettySize=auto;html=1;exitX=0.5;exitY=1;exitDx=0;exitDy=0;entryX=0.5;entryY=0;entryDx=0;entryDy=0;" edge="1" parent="1" source="cYxNwpAaJyoajZP_4yGd-7" target="cYxNwpAaJyoajZP_4yGd-38">
          <mxGeometry relative="1" as="geometry" />
        </mxCell>
        <mxCell id="cYxNwpAaJyoajZP_4yGd-7" value="Mostrar imágenes adicionales" style="rounded=1;whiteSpace=wrap;html=1;fillColor=#fff2cc;strokeColor=#d6b656;" vertex="1" parent="1">
          <mxGeometry x="240" y="520" width="120" height="40" as="geometry" />
        </mxCell>
        <mxCell id="cYxNwpAaJyoajZP_4yGd-24" style="edgeStyle=orthogonalEdgeStyle;rounded=0;orthogonalLoop=1;jettySize=auto;html=1;exitX=0.5;exitY=1;exitDx=0;exitDy=0;entryX=0.5;entryY=0;entryDx=0;entryDy=0;" edge="1" parent="1" source="cYxNwpAaJyoajZP_4yGd-8" target="cYxNwpAaJyoajZP_4yGd-9">
          <mxGeometry relative="1" as="geometry" />
        </mxCell>
        <UserObject label="Backend" link="Modulo backend" id="cYxNwpAaJyoajZP_4yGd-8">
          <mxCell style="rounded=0;whiteSpace=wrap;html=1;fillColor=#dae8fc;strokeColor=#6c8ebf;" vertex="1" parent="1">
            <mxGeometry x="480" y="120" width="120" height="40" as="geometry" />
          </mxCell>
        </UserObject>
        <mxCell id="cYxNwpAaJyoajZP_4yGd-25" style="edgeStyle=orthogonalEdgeStyle;rounded=0;orthogonalLoop=1;jettySize=auto;html=1;exitX=0.5;exitY=1;exitDx=0;exitDy=0;entryX=0.5;entryY=0;entryDx=0;entryDy=0;" edge="1" parent="1" source="cYxNwpAaJyoajZP_4yGd-9" target="cYxNwpAaJyoajZP_4yGd-10">
          <mxGeometry relative="1" as="geometry" />
        </mxCell>
        <mxCell id="cYxNwpAaJyoajZP_4yGd-9" value="Procesar descripción/título" style="rounded=1;whiteSpace=wrap;html=1;fillColor=#d5e8d4;strokeColor=#82b366;" vertex="1" parent="1">
          <mxGeometry x="480" y="200" width="120" height="40" as="geometry" />
        </mxCell>
        <mxCell id="cYxNwpAaJyoajZP_4yGd-26" style="edgeStyle=orthogonalEdgeStyle;rounded=0;orthogonalLoop=1;jettySize=auto;html=1;exitX=0.5;exitY=1;exitDx=0;exitDy=0;entryX=0.5;entryY=0;entryDx=0;entryDy=0;" edge="1" parent="1" source="cYxNwpAaJyoajZP_4yGd-10" target="cYxNwpAaJyoajZP_4yGd-11">
          <mxGeometry relative="1" as="geometry" />
        </mxCell>
        <mxCell id="cYxNwpAaJyoajZP_4yGd-10" value="Generar recomendaciones" style="rounded=1;whiteSpace=wrap;html=1;fillColor=#f8cecc;strokeColor=#b85450;" vertex="1" parent="1">
          <mxGeometry x="480" y="280" width="120" height="40" as="geometry" />
        </mxCell>
        <mxCell id="cYxNwpAaJyoajZP_4yGd-27" style="edgeStyle=orthogonalEdgeStyle;rounded=0;orthogonalLoop=1;jettySize=auto;html=1;exitX=0.5;exitY=1;exitDx=0;exitDy=0;entryX=0.5;entryY=0;entryDx=0;entryDy=0;" edge="1" parent="1" source="cYxNwpAaJyoajZP_4yGd-11" target="cYxNwpAaJyoajZP_4yGd-12">
          <mxGeometry relative="1" as="geometry" />
        </mxCell>
        <mxCell id="cYxNwpAaJyoajZP_4yGd-11" value="Gestionar chat (sugerir personajes, generar respuestas" style="rounded=1;whiteSpace=wrap;html=1;fillColor=#e1d5e7;strokeColor=#9673a6;" vertex="1" parent="1">
          <mxGeometry x="480" y="360" width="120" height="50" as="geometry" />
        </mxCell>
        <mxCell id="cYxNwpAaJyoajZP_4yGd-40" style="edgeStyle=orthogonalEdgeStyle;rounded=0;orthogonalLoop=1;jettySize=auto;html=1;exitX=0.5;exitY=1;exitDx=0;exitDy=0;" edge="1" parent="1" source="cYxNwpAaJyoajZP_4yGd-12">
          <mxGeometry relative="1" as="geometry">
            <mxPoint x="420" y="630" as="targetPoint" />
          </mxGeometry>
        </mxCell>
        <mxCell id="cYxNwpAaJyoajZP_4yGd-12" value="Generar imágenes adicionales" style="rounded=1;whiteSpace=wrap;html=1;fillColor=#fff2cc;strokeColor=#d6b656;" vertex="1" parent="1">
          <mxGeometry x="480" y="440" width="120" height="40" as="geometry" />
        </mxCell>
        <mxCell id="cYxNwpAaJyoajZP_4yGd-32" style="edgeStyle=orthogonalEdgeStyle;rounded=0;orthogonalLoop=1;jettySize=auto;html=1;exitX=0.5;exitY=1;exitDx=0;exitDy=0;entryX=0.5;entryY=0;entryDx=0;entryDy=0;" edge="1" parent="1" source="cYxNwpAaJyoajZP_4yGd-13" target="cYxNwpAaJyoajZP_4yGd-30">
          <mxGeometry relative="1" as="geometry" />
        </mxCell>
        <UserObject label="Modulo chatbot" link="Modulo ChatBot" id="cYxNwpAaJyoajZP_4yGd-13">
          <mxCell style="rounded=0;whiteSpace=wrap;html=1;fillColor=#dae8fc;strokeColor=#6c8ebf;" vertex="1" parent="1">
            <mxGeometry x="80" y="120" width="120" height="40" as="geometry" />
          </mxCell>
        </UserObject>
        <mxCell id="cYxNwpAaJyoajZP_4yGd-33" style="edgeStyle=orthogonalEdgeStyle;rounded=0;orthogonalLoop=1;jettySize=auto;html=1;exitX=0.5;exitY=1;exitDx=0;exitDy=0;entryX=0.5;entryY=0;entryDx=0;entryDy=0;" edge="1" parent="1" source="cYxNwpAaJyoajZP_4yGd-35" target="cYxNwpAaJyoajZP_4yGd-31">
          <mxGeometry relative="1" as="geometry">
            <mxPoint x="715" y="160" as="sourcePoint" />
          </mxGeometry>
        </mxCell>
        <mxCell id="cYxNwpAaJyoajZP_4yGd-42" style="edgeStyle=orthogonalEdgeStyle;rounded=0;orthogonalLoop=1;jettySize=auto;html=1;exitX=0.5;exitY=1;exitDx=0;exitDy=0;entryX=0.5;entryY=0;entryDx=0;entryDy=0;" edge="1" parent="1" source="cYxNwpAaJyoajZP_4yGd-30" target="cYxNwpAaJyoajZP_4yGd-38">
          <mxGeometry relative="1" as="geometry">
            <Array as="points">
              <mxPoint x="140" y="610" />
              <mxPoint x="420" y="610" />
            </Array>
          </mxGeometry>
        </mxCell>
        <mxCell id="cYxNwpAaJyoajZP_4yGd-30" value="Generar respuestas basadas en contexto" style="rounded=1;whiteSpace=wrap;html=1;fillColor=#d5e8d4;strokeColor=#82b366;" vertex="1" parent="1">
          <mxGeometry x="80" y="200" width="120" height="40" as="geometry" />
        </mxCell>
        <mxCell id="cYxNwpAaJyoajZP_4yGd-41" style="edgeStyle=orthogonalEdgeStyle;rounded=0;orthogonalLoop=1;jettySize=auto;html=1;exitX=0.5;exitY=1;exitDx=0;exitDy=0;entryX=0.5;entryY=0;entryDx=0;entryDy=0;" edge="1" parent="1" source="cYxNwpAaJyoajZP_4yGd-31" target="cYxNwpAaJyoajZP_4yGd-38">
          <mxGeometry relative="1" as="geometry">
            <Array as="points">
              <mxPoint x="700" y="580" />
              <mxPoint x="420" y="580" />
            </Array>
          </mxGeometry>
        </mxCell>
        <mxCell id="cYxNwpAaJyoajZP_4yGd-31" value="Generar imágenes basadas en título" style="rounded=1;whiteSpace=wrap;html=1;fillColor=#d5e8d4;strokeColor=#82b366;" vertex="1" parent="1">
          <mxGeometry x="640" y="200" width="120" height="40" as="geometry" />
        </mxCell>
        <mxCell id="cYxNwpAaJyoajZP_4yGd-35" value="Modulo generador de imagenes" style="rounded=0;whiteSpace=wrap;html=1;fillColor=#dae8fc;strokeColor=#6c8ebf;" vertex="1" parent="1">
          <mxGeometry x="640" y="120" width="120" height="40" as="geometry" />
        </mxCell>
        <mxCell id="cYxNwpAaJyoajZP_4yGd-38" value="Salida" style="ellipse;whiteSpace=wrap;html=1;fillColor=#eeeeee;strokeColor=#36393d;" vertex="1" parent="1">
          <mxGeometry x="360" y="630" width="120" height="50" as="geometry" />
        </mxCell>
      </root>
    </mxGraphModel>
  </diagram>
</mxfile>
